<!-- Generated by IcoMoon.io -->
<svg version="1.1" xmlns="http://www.w3.org/2000/svg" width="1536" height="1024" viewBox="0 0 1536 1024">
<g id="icomoon-ignore">
</g>
<path fill="#000" d="M254.151 505.173c-54.827 4.053-124.871 14.222-124.302 33.422 0.569 20.053 52.267 58.667 120.107 83.769 3.058-41.031 3.84-84.622 4.196-117.191zM53.476 298.24c-18.062 0.569-31.644-7.324-32-18.347-0.213-8.036 17.422-33.209 28.16-37.262 7.324-2.773 43.164-16.356 102.827-18.133 22.116-0.64 59.662 2.062 91.378 6.756 184.604 27.378 378.453 168.178 382.151 292.978 2.56 84.978-70.898 164.622-214.116 168.889-37.76 1.138-72.818-3.556-104.818-11.947-0.711 20.836 0.853 31.929-28.729 32.782-18.062 0.569-25.173-28.8-27.804-52.622-86.471-38.4-138.596-100.693-139.307-125.298-1.067-36.622 65.564-67.2 143.431-79.289 1.067-30.364 6.258-107.591 22.258-108.018 6.471-0.213 19.769 14.72 24.818 37.547 4.551 20.764 5.049 58.596 5.12 65.351l5.902-0.213c109.298-3.271 174.862 30.933 176.071 71.396 0.924 31.36-26.88 47.431-41.458 47.858s-31.644-7.893-31.787-12.373c-0.284-8.604 31.076-10.667 30.72-24.604-0.64-21.049-87.538-30.293-141.084-30.649-0.071 18.133-0.284 40.036 0.142 54.827 0.427 14.151 1.28 50.702 1.707 81.209 24.32 5.12 49.351 7.893 73.884 7.182 57.742-1.707 189.653-22.756 186.667-121.813-4.196-138.453-277.831-265.6-424.462-261.262-57.742 1.707-92.373 7.893-92.231 13.582 0.142 3.769 28.089 5.262 28.373 12.729 0.213 7.467-15.929 8.462-25.813 8.747z"></path>
<path fill="#000" d="M667.876 449.493c9.458-0.284 22.969 22.329 23.396 36.48s3.84 88.107 4.764 109.369c0.996 21.333 0.284 41.742-1.067 51.129-1.422 9.458-4.836 14.080-21.049 14.578s-23.751-9.173-25.102-23.467c-1.351-14.293-2.56-54.756-1.849-75.022s1.636-59.093 4.338-83.413c2.56-24.249 9.031-29.44 16.569-29.653z"></path>
<path fill="#000" d="M761.671 283.378c-2.702-6.684-11.733-20.267-43.947-19.342-70.187 2.062-124.16 54.044-122.951 95.004 0.427 13.298 6.827 24.96 16.284 34.489-2.489 6.684-2.702 11.164-2.631 13.724 0.213 7.111 10.951 25.884 19.129 25.671 6.969-0.213 11.733-6.684 18.418-17.28 11.449 4.409 22.827 6.684 31.858 6.4 65.991-1.991 125.796-63.787 124.658-103.324-0.498-18.133-12.302-35.769-40.818-35.342zM662.116 381.653c8.107-11.449 50.204-67.84 93.653-69.12 12.729-0.356 16.071 7.538 16.356 16.213 0.427 13.582-24.178 53.191-79.502 54.827-12.16 0.356-22.329-0.569-30.507-1.92zM627.769 362.951c-0.996-1.636-1.92-4.267-2.062-8.391-0.284-9.031 15.36-43.804 54.756-46.649-10.027 6.898-20.196 15.716-30.222 26.951-9.458 10.596-16.924 19.982-22.471 28.089z"></path>
<path fill="#000" d="M838.969 445.724c38.613-1.138 87.040 3.84 87.396 16.213 0.213 7.253-3.556 22.329-24.178 24.391-24.32 2.489-146.916 7.68-146.489 22.827 0.213 8.036 37.049 9.742 70.898 11.804 34.702 2.133 90.453 3.413 92.16 59.591 1.351 44.373-15.502 53.76-23.040 57.244-9.6 4.48-41.813 16.711-66.56 17.493-74.453 2.204-105.173-40.604-105.813-62.293-0.569-19.342 19.271-36.409 52.693-37.404s85.12 11.022 85.547 24.818c0.356 11.164-22.471 16.853-32.569 17.138-45.582 1.351-43.378-17.138-69.618-16.356-14.933 0.427-35.982 32.213 39.040 30.009 66.844-1.991 87.040-24.036 86.684-35.84-0.498-15.644-48.427-23.253-76.16-24.747-27.733-1.422-69.333-1.28-83.556-10.24s-12.231-29.298-7.324-46.080c10.382-35.2 82.276-47.431 120.889-48.569z"></path>
<path fill="#000" d="M970.88 460.231c26.098-0.782 80.782 117.547 90.027 117.262s2.347-27.662-3.484-57.884c-13.156-68.409-33.707-103.68-14.436-104.249 14.293-0.427 61.084 44.871 63.644 132.551 1.209 40.676-4.551 94.009-41.387 95.076-34.987 1.067-74.809-109.369-83.84-109.156-4.907 0.142-5.262 68.409-6.613 89.031-1.28 20.551-8.462 31.573-19.982 31.929-17.422 0.498-25.031-16.142-26.027-48.996-0.853-32.853 9.956-144.569 42.098-145.564z"></path>
<path fill="#000" d="M1236.267 524.302c12.373-0.356 23.253-2.418 22.187 13.653s-1.778 22.542-14.649 22.898l-66.062 1.991c-2.204 7.324-7.822 26.24-10.382 34.276-3.2 10.027 6.827 7.822 19.769 4.124s48.071-10.311 62.507-10.738c14.436-0.427 25.244 22.613 16.924 30.507s-52.978 45.653-99.627 47.004c-19.982 0.569-47.147-16.853-48.071-48.213-0.498-16.569 6.187-38.827 12.516-56.107-1.564-0.996-2.702-3.271-3.627-8.249-2.062-11.236-7.111-23.609 11.591-25.742 1.493-0.142 3.413-0.356 5.618-0.498l15.502-31.858c-6.258-0.924-11.733-2.276-15.858-4.338-11.378-5.404-20.267-19.413-20.409-25.671-0.427-13.724 100.338-21.973 123.662-22.684 25.031-0.711 32.142 4.124 40.178 15.502 7.964 11.449 11.022 19.556 11.093 22.684s-2.844 10.88-33.067 11.804c-15.502 0.427-40.533 3.058-64.569 3.982l-10.453 27.876c23.324-1.351 45.227-2.204 45.227-2.204z"></path>
<path fill="#000" d="M1304.533 619.52c-27.022 53.404-45.298 109.938-44.018 152.462 1.422 47.929 30.862 65.849 39.822 65.564s9.387-14.436 11.022-25.031c9.102-59.876 24.818-112.996 42.738-157.582 7.111 1.778 14.151 2.631 20.622 2.418 54.827-1.636 118.4-67.2 116.338-136.96-1.067-36.836-15.147-63.004-38.827-62.293-34.56 0.996-84.196 53.262-124.089 118.756-3.556-26.596 17.422-67.556 35.271-96.142 12.587-20.124 10.382-44.018 5.12-43.876-7.324 0.213-78.080 60.16-75.662 142.293 0.64 16.071 4.764 29.511 11.662 40.391zM1377.707 602.951c32.996-64.569 67.058-101.404 79.076-101.76 20.764-0.64 3.2 93.298-79.076 101.76z"></path>
</svg>
