<svg aria-hidden="true" style="position: absolute; width: 0; height: 0; overflow: hidden;" version="1.1" xmlns="http://www.w3.org/2000/svg" xmlns:xlink="http://www.w3.org/1999/xlink">
  <defs>
    <symbol id="icon-disney_wordmark" viewBox="0 0 76 32">
      <path d="M65.457 13.977c-1.272 0.293-4.63 0.457-4.63 0.457l-0.413 1.326s1.663-0.141 2.88-0.022c0 0 0.391-0.033 0.435 0.435 0.022 0.478-0.033 0.978-0.033 0.978s-0.033 0.293-0.435 0.37c-0.467 0.076-3.62 0.217-3.62 0.217l-0.511 1.717s-0.185 0.391 0.239 0.283c0.391-0.109 3.696-0.739 4.13-0.652 0.457 0.109 0.978 0.739 0.826 1.304-0.174 0.685-3.478 2.793-5.478 2.652 0 0-1.054 0.065-1.935-1.359-0.848-1.359 0.293-3.913 0.293-3.913s-0.511-1.196-0.13-1.63c0 0 0.217-0.185 0.87-0.239l0.815-1.674s-0.924 0.054-1.467-0.62c-0.5-0.652-0.543-0.935-0.152-1.109 0.413-0.217 4.239-0.902 6.87-0.815 0 0 0.924-0.109 1.739 1.489 0 0 0.37 0.652-0.283 0.804zM55.543 20.412c-0.326 0.793-1.228 1.63-2.315 1.12-1.109-0.522-2.859-4.087-2.859-4.087s-0.652-1.326-0.783-1.283c0 0-0.141-0.261-0.217 1.196-0.109 1.446 0.022 4.261-0.576 4.707-0.543 0.435-1.196 0.25-1.565-0.261-0.304-0.511-0.435-1.739-0.261-3.88 0.196-2.141 0.685-4.424 1.304-5.13 0.652-0.717 1.174-0.196 1.37 0 0 0 0.837 0.761 2.25 3.011l0.239 0.413s1.283 2.141 1.413 2.13c0 0 0.109 0.109 0.196 0.022 0.13-0.033 0.087-0.728 0.087-0.728s-0.239-2.315-1.435-6.228c0 0-0.174-0.5-0.054-0.978 0.109-0.435 0.576-0.217 0.576-0.217s1.804 0.87 2.685 3.804c0.87 2.935 0.283 5.598-0.043 6.391zM46.696 12.879c-0.174 0.304-0.25 0.728-1 0.848 0 0-7.283 0.511-7.641 1.022 0 0-0.239 0.304 0.152 0.38 0.413 0.087 2.065 0.304 2.848 0.348 0.848 0 3.696 0.022 4.739 1.304 0 0 0.598 0.609 0.576 1.989-0.022 1.413-0.272 1.913-0.826 2.424-0.576 0.478-5.511 2.696-8.696-0.696 0 0-1.457-1.63 0.511-2.87 0 0 1.413-0.87 5.033 0.141 0 0 1.087 0.391 1.043 0.793-0.065 0.435-0.902 0.87-2.12 0.848-1.174-0.033-2.043-0.598-1.87-0.5 0.163 0.054-1.272-0.696-1.717-0.185-0.435 0.478-0.326 0.761 0.109 1.054 1.087 0.63 5.359 0.402 6.63-1.022 0 0 0.511-0.576-0.261-1.043-0.761-0.435-2.978-0.707-3.837-0.739-0.815-0.043-3.87 0-4.326-0.793 0 0-0.435-0.565 0.043-2.109 0.5-1.63 4.054-2.261 5.598-2.391 0 0 4.239-0.174 5.033 0.696 0 0 0.109 0.196-0.022 0.489zM34.674 22.434c-0.511 0.38-1.598 0.217-1.913-0.217-0.304-0.38-0.413-1.88-0.359-4.239 0.076-2.413 0.109-5.37 0.652-5.848 0.543-0.467 0.87-0.054 1.087 0.261 0.217 0.326 0.5 0.685 0.543 1.435 0.065 0.761 0.25 4.674 0.25 4.674s0.239 3.565-0.25 3.935zM35.761 9.716c-1.5 0.511-2.522 0.348-3.391-0.033-0.38 0.685-0.609 0.891-0.891 0.935-0.435 0.043-0.815-0.652-0.87-0.87-0.087-0.163-0.293-0.457-0.043-1.12-0.848-0.761-0.913-1.783-0.761-2.467 0.196-0.804 1.63-3.826 5.978-4.185 0 0 2.13-0.152 2.5 0.978h0.065s2.065 0 2.022 1.848c0 1.848-2.283 4.152-4.609 4.946zM37.696 4.455c-1.37 0.217-3.478 2.043-4.489 3.554 1.554 0.283 4.272 0.174 5.489-2.283 0 0 0.576-1.543-1-1.272zM31.685 5.651c-0.435 0.707-0.457 1.13-0.25 1.413 0.511-0.761 1.413-1.957 2.772-2.891-1.043 0.109-1.924 0.543-2.522 1.478zM68.717 22.357c-1 2.457-1.848 4.946-2.337 8.674 0 0-0.109 0.728-0.707 0.489-0.598-0.217-1.576-1.196-1.793-2.576-0.217-1.804 0.587-4.848 2.228-8.348-0.478-0.761-0.815-1.891-0.543-3.478 0 0 0.435-2.935 3.37-5.587 0 0 0.348-0.293 0.543-0.196 0.239 0.109 0.141 1.043-0.054 1.522-0.174 0.457-1.478 2.717-1.478 2.717s-0.815 1.543-0.587 2.75c1.543-2.37 5.054-7.174 7.228-5.652 1.38 0.978 1.38 4.13 0.348 5.957-0.815 1.446-3.12 4.435-6.196 3.739zM73.261 14.977c-0.804 0.87-2.239 2.522-3.37 4.761 1.196-0.13 2.359-0.793 2.717-1.13 0.576-0.511 1.902-1.891 1.696-3.717 0 0-0.13-0.957-1.043 0.087zM24.565 23.64c-3.848 1.174-7.478 0.63-9.457 0.109-0.054 0.804-0.141 1.141-0.272 1.272-0.152 0.174-1.413 0.891-2.109-0.13-0.304-0.489-0.457-1.37-0.543-2.174-4.457-2.022-6.522-5-6.587-5.109-0.109-0.109-1.12-1.163-0.109-2.467 0.946-1.174 4.076-2.359 6.88-2.826 0.109-2.391 0.37-4.239 0.707-5.054 0.402-0.978 0.913-0.109 1.37 0.543 0.37 0.489 0.598 2.587 0.62 4.261 1.826-0.087 2.935 0.043 4.967 0.435 2.674 0.457 4.457 1.826 4.315 3.37-0.13 1.522-1.522 2.152-2.065 2.196s-1.413-0.359-1.413-0.359c-0.609-0.283-0.054-0.543 0.652-0.848 0.783-0.38 0.609-0.761 0.609-0.761-0.283-0.87-3.75-1.446-7.196-1.446 0 1.902 0.076 5.054 0.13 6.891 2.413 0.457 4.217 0.359 4.217 0.359s8.804-0.25 9.054-5.87c0.272-5.63-8.804-11.022-15.489-12.717-6.674-1.75-10.457-0.511-10.783-0.348-0.359 0.174-0.033 0.239-0.033 0.239s0.359 0.054 1.011 0.272c0.652 0.217 0.13 0.543 0.13 0.543-1.141 0.391-2.413 0.163-2.663-0.359-0.25-0.511 0.163-0.978 0.652-1.663 0.457-0.707 0.978-0.685 0.978-0.685 8.261-2.88 18.348 2.283 18.348 2.283 9.435 4.761 11.043 10.359 10.87 12.533-0.152 2.141-0.978 5.761-6.793 7.522zM6.413 15.868c-0.935 0.435-0.283 1.13-0.283 1.13 1.761 1.88 3.913 3.065 5.978 3.804 0.239-3.261 0.217-4.424 0.217-6.065-3.196 0.217-5.043 0.739-5.913 1.13z"></path>
    </symbol>
  </defs>
</svg>