<svg aria-hidden="true" style="position: absolute; width: 0; height: 0; overflow: hidden;" version="1.1" xmlns="http://www.w3.org/2000/svg" xmlns:xlink="http://www.w3.org/1999/xlink">
    <defs>
        <symbol id="icon-AKQA" viewBox="0 0 65 32">
            <path d="M49.724 29.124c-0.089 0.011-0.214 0.074-0.374 0.186-0.552 0.387-1.203 0.579-1.951 0.579-0.491 0-1.128-0.329-1.914-0.984l-1.014-0.861-1.244-1.073c-0.358-0.282-0.986-0.721-1.886-1.319 0.615-0.158 1.189-0.36 1.724-0.606l-13.889 0.002c0.205 0.236 0.44 0.355 0.709 0.355 0.142 0 0.347-0.013 0.613-0.036 0.239-0.023 0.627-0.036 1.161-0.036 0.488 0 0.831 0.009 1.034 0.030l-0.038 0.077c-0.418 0.87-0.645 1.754-0.681 2.649-0.002 0.045-0.003 0.091 0 0.13v0c0.013 0.285 0.122 0.426 0.33 0.426 0.135 0 0.233-0.139 0.294-0.426h0.002c0.011-0.061 0.022-0.127 0.033-0.202 0.099-0.814 0.374-1.507 0.828-2.076s0.955-0.856 1.496-0.856c0.624 0 1.605 0.458 2.94 1.375l2.245 1.549c0.059 0.042 0.155 0.111 0.286 0.21 0.377 0.279 1.047 0.782 2.012 1.515 1.45 1.103 2.712 1.654 3.782 1.654 0.793 0 1.618-0.228 2.479-0.689 0.857-0.458 1.28-0.898 1.261-1.317-0.009-0.181-0.088-0.268-0.241-0.255z"></path>
            <path d="M64.433 24.619c-0.847-0.197-1.407-0.466-1.684-0.809-0.275-0.341-0.624-1.214-1.041-2.616l-0.296-0.94-1.9-6.301-3.865-12.832c-0.099-0.335-0.216-0.504-0.358-0.504-0.141 0-0.269 0.174-0.383 0.523l-4.444 12.814h1.116c0.014-0.117 0.070-0.315 0.172-0.59l2.608-7.501c0.080-0.232 0.152-0.341 0.214-0.329 0.125 0.011 0.243 0.202 0.349 0.57l0.106 0.365 2.101 6.86 0.067 0.311c0.031 0.13 0.052 0.236 0.061 0.315h1.025l-1.025 0.002c0.005 0.031 0.006 0.059 0.006 0.083 0 0.289-0.224 0.433-0.67 0.433h-4.043l-0.36-0.017c-0.412 0-0.617-0.152-0.617-0.451 0-0.016 0-0.033 0.003-0.050h-1.116l-2.433 7.018-0.388 1.147c-0.197 0.534-0.448 1.047-0.749 1.54-0.304 0.491-0.545 0.773-0.723 0.842l-0.494 0.192c-0.144 0.056-0.221 0.175-0.227 0.354-0.002 0.009-0.002 0.019-0.002 0.030 0 0.219 0.12 0.329 0.361 0.329 0.044 0 0.293-0.038 0.745-0.114 0.142-0.019 0.343-0.028 0.601-0.028 0.559 0 1.053 0.011 1.479 0.036l1.282 0.088c0.205 0.013 0.354 0.019 0.452 0.019 0.258 0 0.382-0.099 0.374-0.296-0.002-0.020-0.005-0.042-0.008-0.063v0c-0.030-0.174-0.167-0.293-0.41-0.354-0.617-0.174-1.031-0.382-1.242-0.626-0.21-0.243-0.315-0.635-0.315-1.177 0-0.568 0.199-1.433 0.599-2.602l0.887-2.547c0.266-0.785 0.48-1.249 0.642-1.386 0.161-0.139 0.571-0.21 1.231-0.21h4.844c0.501 0 0.803 0.050 0.911 0.149s0.255 0.466 0.443 1.103l0.671 2.292c0.548 1.831 0.822 3.051 0.822 3.665 0 0.671-0.224 1.066-0.673 1.181l-0.416 0.12c-0.224 0.061-0.336 0.186-0.336 0.376v0.016c0.006 0.239 0.122 0.358 0.347 0.358 0.089 0 0.227-0.025 0.415-0.072 0.311-0.070 1.087-0.106 2.325-0.106 1.186 0 2.011 0.025 2.474 0.077 0.258 0.019 0.429 0.030 0.509 0.030 0.239 0 0.363-0.094 0.374-0.285v-0.003c0.009-0.214-0.124-0.355-0.401-0.424z"></path>
            <path d="M40.549 24.761c-1.917 0-3.647-0.909-5.197-2.729-1.735-2.053-2.743-4.746-3.022-8.080-0.053-0.637-0.080-1.299-0.080-1.984 0-2.945 0.609-5.334 1.825-7.171 1.219-1.837 2.802-2.756 4.754-2.756 2.31 0 4.272 1.26 5.888 3.78 1.455 2.272 2.255 4.981 2.399 8.13 0.016 0.347 0.025 0.699 0.025 1.058 0 2.909-0.607 5.261-1.82 7.057-1.214 1.796-2.804 2.694-4.772 2.694zM47.842 19.738c0.739-1.76 1.141-3.688 1.208-5.785 0.008-0.21 0.009-0.421 0.009-0.632 0-3.641-0.876-6.603-2.629-8.886-1.752-2.285-4.021-3.427-6.805-3.427-3.14 0-5.574 1.368-7.306 4.104-1.454 2.31-2.18 5.11-2.18 8.403 0 0.147 0.002 0.293 0.005 0.437 0.089 3.932 1.41 7.181 3.959 9.741-0.363 0.192-0.696 0.515-1.003 0.964l-0.457-0.124c-0.873-0.232-1.681-0.853-2.422-1.864l-6.411-8.717h-5.023v6.7c0 1.458-0.111 2.496-0.33 3.112-0.049 0.135-0.105 0.255-0.169 0.365-0.155-0.099-0.279-0.203-0.372-0.318-0.277-0.343-0.623-1.216-1.042-2.618l-0.294-0.94-5.764-19.132c-0.097-0.336-0.217-0.505-0.357-0.505-0.141 0-0.269 0.175-0.385 0.523l-4.442 12.814h1.114c0.014-0.116 0.070-0.313 0.172-0.59l2.61-7.501c0.080-0.232 0.15-0.341 0.214-0.329 0.124 0.011 0.239 0.202 0.346 0.57l0.11 0.366 2.1 6.858 0.067 0.313c0.031 0.13 0.052 0.235 0.061 0.313h1.026l-1.026 0.002c0.003 0.031 0.006 0.059 0.006 0.083 0 0.289-0.222 0.433-0.67 0.433h-4.042l-0.361-0.017c-0.412 0-0.617-0.152-0.617-0.451 0-0.016 0.002-0.031 0.003-0.050h-1.114l-2.435 7.018-0.388 1.149c-0.197 0.532-0.446 1.045-0.751 1.538-0.302 0.491-0.543 0.773-0.721 0.842l-0.494 0.192c-0.144 0.056-0.221 0.175-0.227 0.355v0.028c0 0.219 0.119 0.329 0.36 0.329 0.044 0 0.293-0.038 0.746-0.114 0.141-0.019 0.341-0.028 0.599-0.028 0.56 0 1.053 0.011 1.48 0.036l1.278 0.088c0.205 0.013 0.357 0.019 0.454 0.019 0.258 0 0.382-0.099 0.372-0.296 0-0.020-0.003-0.042-0.006-0.061v0c-0.031-0.175-0.167-0.294-0.408-0.355-0.62-0.174-1.031-0.382-1.242-0.624-0.211-0.244-0.316-0.637-0.316-1.178 0-0.568 0.2-1.433 0.599-2.601l0.887-2.549c0.268-0.785 0.48-1.249 0.642-1.386 0.161-0.139 0.571-0.21 1.231-0.21h4.846c0.499 0 0.801 0.050 0.909 0.149 0.106 0.099 0.255 0.466 0.441 1.103l0.674 2.292c0.546 1.831 0.82 3.051 0.82 3.666 0 0.67-0.224 1.064-0.673 1.18l-0.416 0.122c-0.225 0.059-0.336 0.185-0.336 0.374v0.017c0.006 0.238 0.12 0.357 0.347 0.357 0.089 0 0.227-0.023 0.415-0.072 0.313-0.070 1.088-0.106 2.327-0.106 0.642 0 1.225-0.008 1.701-0.006 0.349 0.016 3.884 0.161 4.165 0.202 0.357 0.045 0.599 0.075 0.726 0.091 0.222 0.009 0.33-0.102 0.322-0.34-0.003-0.045-0.013-0.088-0.028-0.125-0.053-0.122-0.177-0.203-0.374-0.249-0.989-0.208-1.623-0.527-1.9-0.956-0.275-0.429-0.415-1.31-0.415-2.643v-6.365c0-0.266 0.083-0.401 0.247-0.401 0.11 0 0.219 0.064 0.329 0.192l0.268 0.383 7.184 9.615 0.228 0.325c0.023 0.034 0.050 0.067 0.077 0.097h13.889c0.52-0.239 1.001-0.516 1.446-0.839 1.41-1.044 2.521-2.533 3.331-4.469z"></path>
            <path d="M22.929 12.458c0.009-0.141 0.111-0.325 0.307-0.559l4.574-5.392c2.278-2.663 3.82-4.128 4.622-4.395 0.438-0.136 0.653-0.296 0.643-0.479-0.017-0.227-0.147-0.341-0.39-0.341-0.072 0-0.208 0.025-0.415 0.072-0.18 0.036-0.551 0.053-1.114 0.053l-1.006 0.017-1.235-0.047c-0.465 0-0.884-0.020-1.26-0.063-0.161-0.022-0.282-0.033-0.363-0.033-0.277 0-0.416 0.117-0.416 0.351 0 0.211 0.203 0.355 0.609 0.433 0.643 0.152 0.964 0.494 0.964 1.026 0 0.617-0.441 1.433-1.324 2.457l-5.746 6.703-0.2 0.21-0.214 0.191c-0.081 0-0.12-0.122-0.12-0.368v-6.825c0-1.191 0.075-1.986 0.224-2.388 0.147-0.404 0.505-0.762 1.070-1.078 0.216-0.11 0.324-0.243 0.324-0.397 0-0.221-0.106-0.327-0.322-0.315-0.072 0-0.288 0.031-0.646 0.089-0.196 0.016-0.429 0.023-0.698 0.023l-1.008 0.044-0.498 0.023c-0.976 0-1.693-0.041-2.152-0.121-0.188-0.039-0.349-0.059-0.483-0.059-0.241 0-0.363 0.119-0.363 0.357 0 0.169 0.116 0.288 0.349 0.355l0.657 0.177c0.581 0.161 0.975 0.491 1.18 0.986 0.207 0.498 0.31 1.369 0.31 2.616v8.168h5.021l-0.56-0.76c-0.222-0.315-0.33-0.559-0.321-0.732z"></path>
        </symbol>
        <symbol id="icon-disney" viewBox="0 0 77 32">
            <path d="M77.32-0.5h-78.138v33h78.138v-33z"></path>
        </symbol>
        <symbol id="icon-nike" viewBox="0 0 90 32">
            <path d="M10.526 31.802c-2.657-0.105-4.835-0.829-6.534-2.172-0.321-0.257-1.096-1.026-1.358-1.351-0.689-0.863-1.155-1.702-1.469-2.633-0.964-2.867-0.466-6.629 1.417-10.758 1.614-3.535 4.1-7.041 8.443-11.897 0.636-0.715 2.545-2.804 2.558-2.804 0 0-0.105 0.179-0.23 0.397-1.135 1.881-2.099 4.096-2.624 6.015-0.846 3.078-0.741 5.719 0.302 7.767 0.715 1.411 1.948 2.633 3.333 3.309 2.427 1.182 5.976 1.28 10.313 0.286 0.302-0.069 15.095-3.976 32.886-8.683 17.785-4.707 32.335-8.556 32.342-8.552s-41.323 17.595-62.775 26.721c-3.398 1.445-4.31 1.81-5.904 2.368-4.087 1.426-7.741 2.107-10.7 1.99z"></path>
        </symbol>
        <symbol id="icon-gq" viewBox="0 0 61 32">
            <path d="M56.483 25.343c0 0 2.957-3.853 2.967-8.88 0.021-9.868-6.888-16.276-16.511-16.286-5.579-0.010-10.316 2.709-13.188 6.696-0.101-0.144-0.207-0.278-0.307-0.422-2.4-3.183-6.549-6.407-12.982-6.418-7.566-0.010-13.414 5.058-15.338 11.249-0.021 0.072-0.041 0.155-0.061 0.227v0.010c-0.402 1.391-0.618 2.853-0.618 4.368 0.010 1.442 0.206 2.833 0.546 4.141 1.214 4.522 4.377 8.251 8.541 10.26 0.032 0.010 0.064 0.031 0.106 0.051 0.021 0.010 0.042 0.021 0.064 0.031 2.098 0.958 4.456 1.494 6.968 1.504 5.309-0.041 10.014-2.647 12.918-6.634 0.064-0.082 0.111-0.165 0.175-0.247 2.798 4.038 7.45 6.974 13.225 6.974 3.831 0 6.538-1.638 7.031-1.895l1.023 1.339h9.808l-4.366-6.067zM16.573 23.118c-3.428 0-7.317-2.709-7.392-7.056-0.079-4.502 3.81-7.448 7.392-7.324 2.914 0.103 4.027 0.937 5.643 2.534 0 0 2.347 0 4.737 0 0.185 0 0.36 0 0.546 0 0 0 0 0 0 0.010-0.228 0.7-0.403 1.411-0.53 2.132h-9.251v7.489h4.053c0 0.196-2.077 2.215-5.198 2.215zM50.511 18.153l-0.832-1.133h-9.956l4.048 5.851c-4.212 0.824-8.192-2.699-8.133-6.799 0.064-4.193 3.439-7.324 7.487-7.303 4.435 0.031 8.849 4.811 7.386 9.384z"></path>
        </symbol>
        <symbol id="icon-bbdo" viewBox="0 0 111 32">
            <path d="M106.783 4.681c-2.89-2.879-6.97-4.65-11.68-4.648-4.707-0.001-8.809 1.793-11.718 4.69-1.81 1.8-3.161 4.028-3.924 6.507-0.748-2.415-2.074-4.557-3.868-6.273-2.887-2.765-6.977-4.418-11.753-4.416h-12.159v18.334c-0.804-1.648-2.188-2.831-3.932-3.677 1.722-1.29 3.083-3.274 3.066-6.238v-0.083c0.006-2.509-1.026-4.66-2.865-6.109-1.834-1.452-4.418-2.227-7.532-2.227h-14.343v18.332c-0.804-1.648-2.188-2.831-3.931-3.676 1.72-1.29 3.081-3.274 3.064-6.238v-0.083c0.008-2.507-1.024-4.66-2.863-6.107-1.834-1.455-4.419-2.227-7.534-2.227h-14.341v30.917h14.678c3.407-0.001 6.294-0.685 8.385-2.149 1.111-0.773 1.974-1.782 2.542-2.988v5.137h14.68c3.407-0.001 6.294-0.684 8.386-2.149 1.11-0.771 1.973-1.781 2.541-2.986v5.135h12.165c4.778 0 8.864-1.675 11.75-4.459 1.773-1.707 3.085-3.831 3.836-6.218 0.752 2.497 2.098 4.735 3.91 6.537 2.89 2.878 6.972 4.648 11.679 4.647h0.007c4.706 0 8.807-1.795 11.716-4.69 2.911-2.896 4.636-6.896 4.634-11.276v-0.084c0.001-4.379-1.701-8.359-4.594-11.235zM8.166 7.639h5.681c1.275-0.003 2.192 0.263 2.737 0.659 0.538 0.401 0.79 0.885 0.801 1.674v0.084c-0.017 0.902-0.309 1.376-0.928 1.785-0.628 0.401-1.675 0.636-3.030 0.634h-5.261v-4.836zM19.024 21.862c-0.018 0.913-0.307 1.419-0.908 1.839-0.607 0.412-1.622 0.665-2.968 0.662h-6.981v-5.087h6.771c1.577-0.003 2.634 0.301 3.232 0.73 0.595 0.433 0.84 0.952 0.854 1.772v0.084zM33.772 7.639h5.681c1.273-0.001 2.194 0.264 2.735 0.66 0.539 0.399 0.792 0.885 0.805 1.672v0.083c-0.019 0.905-0.31 1.378-0.931 1.788-0.627 0.401-1.674 0.635-3.027 0.63h-5.262v-4.833zM44.63 21.861c-0.015 0.915-0.308 1.421-0.908 1.842-0.606 0.412-1.62 0.663-2.968 0.66h-6.983v-5.087h6.771c1.577-0.003 2.633 0.302 3.232 0.73 0.594 0.433 0.841 0.95 0.855 1.772v0.083zM71.998 16.084c-0.039 4.889-3.198 8.070-8.158 8.109h-4.293v-16.385h4.293c4.948 0.037 8.12 3.303 8.158 8.194v0.082zM103.222 16.084c-0.022 4.726-3.309 8.479-8.118 8.489-4.799-0.007-8.182-3.854-8.198-8.571v-0.084c0.022-4.726 3.308-8.479 8.115-8.49 4.801 0.006 8.183 3.854 8.201 8.574v0.082h-0.001z"></path>
        </symbol>
        <symbol id="icon-a24" viewBox="0 0 78 32">
            <path d="M66.256 23.297h-10.839l10.839-12.113v12.113zM75.119 23.297v-23.263l-21.576 24.104h-16.564c-0.713 0-1.284-0.574-1.284-1.291 0-0.492 0.265-0.902 0.652-1.127 0.020 0 0.020-0.020 0.041-0.020 1.671-0.861 3.28-1.312 4.197-1.578l0.285-0.082c0.55-0.164 1.243-0.307 1.956-0.471 0.245-0.061 0.509-0.123 0.774-0.164 4.38-1.004 10.309-2.726 10.309-9.756 0-1.558-0.387-3.136-1.283-4.55-1.426-2.255-4.116-4.079-8.516-4.612-0.856-0.102-1.793-0.164-2.791-0.164-6.825 0-11.43 3.607-11.593 9.018 0 0.102 0 0.184 0 0.287 0 2.992 2.404 5.411 5.379 5.411s5.379-2.439 5.379-5.411c0-2.992-2.404-5.411-5.379-5.411-0.163 0-0.326 0-0.489 0.021h-0.020c-1.1 0.103-2.119 0.553-2.913 1.209 0.611-0.963 1.447-1.783 2.465-2.46 0.020 0 0.020-0.021 0.041-0.021 1.834-1.189 4.279-1.845 7.151-1.845 0.306 0 0.611 0 0.897 0.020 0.061 0 0.122 0 0.183 0 0.632 0.082 1.121 0.615 1.121 1.271v15.003c0 0.697-0.489 1.291-1.121 1.455-0.041 0-0.061 0.020-0.102 0.020-0.611 0.123-1.161 0.267-1.65 0.41l-0.265 0.082c-1.324 0.369-4.075 1.148-6.499 3.013-0.856 0.656-1.589 1.373-2.221 2.173-1.589 2.029-2.384 4.509-2.384 7.399h17.298l6.988-7.809h12.693v7.809h8.863v-7.809h2.221v-0.84h-2.241v-0.020zM4.482 24.28l5.46-11.744 5.44 11.744h-10.9zM11.756 6.633c-1.1 2.316-3.382 2.562-3.382 2.562l1.1 2.357v0.021l-9.474 20.374h0.917l3.178-6.825h11.674l3.158 6.825h9.779l-14.323-30.95-2.628 5.636z"></path>
        </symbol>
        <symbol id="icon-disney_wordmark" viewBox="0 0 76 32">
            <path d="M65.457 13.977c-1.272 0.293-4.63 0.457-4.63 0.457l-0.413 1.326s1.663-0.141 2.88-0.022c0 0 0.391-0.033 0.435 0.435 0.022 0.478-0.033 0.978-0.033 0.978s-0.033 0.293-0.435 0.37c-0.467 0.076-3.62 0.217-3.62 0.217l-0.511 1.717s-0.185 0.391 0.239 0.283c0.391-0.109 3.696-0.739 4.13-0.652 0.457 0.109 0.978 0.739 0.826 1.304-0.174 0.685-3.478 2.793-5.478 2.652 0 0-1.054 0.065-1.935-1.359-0.848-1.359 0.293-3.913 0.293-3.913s-0.511-1.196-0.13-1.63c0 0 0.217-0.185 0.87-0.239l0.815-1.674s-0.924 0.054-1.467-0.62c-0.5-0.652-0.543-0.935-0.152-1.109 0.413-0.217 4.239-0.902 6.87-0.815 0 0 0.924-0.109 1.739 1.489 0 0 0.37 0.652-0.283 0.804zM55.543 20.412c-0.326 0.793-1.228 1.63-2.315 1.12-1.109-0.522-2.859-4.087-2.859-4.087s-0.652-1.326-0.783-1.283c0 0-0.141-0.261-0.217 1.196-0.109 1.446 0.022 4.261-0.576 4.707-0.543 0.435-1.196 0.25-1.565-0.261-0.304-0.511-0.435-1.739-0.261-3.88 0.196-2.141 0.685-4.424 1.304-5.13 0.652-0.717 1.174-0.196 1.37 0 0 0 0.837 0.761 2.25 3.011l0.239 0.413s1.283 2.141 1.413 2.13c0 0 0.109 0.109 0.196 0.022 0.13-0.033 0.087-0.728 0.087-0.728s-0.239-2.315-1.435-6.228c0 0-0.174-0.5-0.054-0.978 0.109-0.435 0.576-0.217 0.576-0.217s1.804 0.87 2.685 3.804c0.87 2.935 0.283 5.598-0.043 6.391zM46.696 12.879c-0.174 0.304-0.25 0.728-1 0.848 0 0-7.283 0.511-7.641 1.022 0 0-0.239 0.304 0.152 0.38 0.413 0.087 2.065 0.304 2.848 0.348 0.848 0 3.696 0.022 4.739 1.304 0 0 0.598 0.609 0.576 1.989-0.022 1.413-0.272 1.913-0.826 2.424-0.576 0.478-5.511 2.696-8.696-0.696 0 0-1.457-1.63 0.511-2.87 0 0 1.413-0.87 5.033 0.141 0 0 1.087 0.391 1.043 0.793-0.065 0.435-0.902 0.87-2.12 0.848-1.174-0.033-2.043-0.598-1.87-0.5 0.163 0.054-1.272-0.696-1.717-0.185-0.435 0.478-0.326 0.761 0.109 1.054 1.087 0.63 5.359 0.402 6.63-1.022 0 0 0.511-0.576-0.261-1.043-0.761-0.435-2.978-0.707-3.837-0.739-0.815-0.043-3.87 0-4.326-0.793 0 0-0.435-0.565 0.043-2.109 0.5-1.63 4.054-2.261 5.598-2.391 0 0 4.239-0.174 5.033 0.696 0 0 0.109 0.196-0.022 0.489zM34.674 22.434c-0.511 0.38-1.598 0.217-1.913-0.217-0.304-0.38-0.413-1.88-0.359-4.239 0.076-2.413 0.109-5.37 0.652-5.848 0.543-0.467 0.87-0.054 1.087 0.261 0.217 0.326 0.5 0.685 0.543 1.435 0.065 0.761 0.25 4.674 0.25 4.674s0.239 3.565-0.25 3.935zM35.761 9.716c-1.5 0.511-2.522 0.348-3.391-0.033-0.38 0.685-0.609 0.891-0.891 0.935-0.435 0.043-0.815-0.652-0.87-0.87-0.087-0.163-0.293-0.457-0.043-1.12-0.848-0.761-0.913-1.783-0.761-2.467 0.196-0.804 1.63-3.826 5.978-4.185 0 0 2.13-0.152 2.5 0.978h0.065s2.065 0 2.022 1.848c0 1.848-2.283 4.152-4.609 4.946zM37.696 4.455c-1.37 0.217-3.478 2.043-4.489 3.554 1.554 0.283 4.272 0.174 5.489-2.283 0 0 0.576-1.543-1-1.272zM31.685 5.651c-0.435 0.707-0.457 1.13-0.25 1.413 0.511-0.761 1.413-1.957 2.772-2.891-1.043 0.109-1.924 0.543-2.522 1.478zM68.717 22.357c-1 2.457-1.848 4.946-2.337 8.674 0 0-0.109 0.728-0.707 0.489-0.598-0.217-1.576-1.196-1.793-2.576-0.217-1.804 0.587-4.848 2.228-8.348-0.478-0.761-0.815-1.891-0.543-3.478 0 0 0.435-2.935 3.37-5.587 0 0 0.348-0.293 0.543-0.196 0.239 0.109 0.141 1.043-0.054 1.522-0.174 0.457-1.478 2.717-1.478 2.717s-0.815 1.543-0.587 2.75c1.543-2.37 5.054-7.174 7.228-5.652 1.38 0.978 1.38 4.13 0.348 5.957-0.815 1.446-3.12 4.435-6.196 3.739zM73.261 14.977c-0.804 0.87-2.239 2.522-3.37 4.761 1.196-0.13 2.359-0.793 2.717-1.13 0.576-0.511 1.902-1.891 1.696-3.717 0 0-0.13-0.957-1.043 0.087zM24.565 23.64c-3.848 1.174-7.478 0.63-9.457 0.109-0.054 0.804-0.141 1.141-0.272 1.272-0.152 0.174-1.413 0.891-2.109-0.13-0.304-0.489-0.457-1.37-0.543-2.174-4.457-2.022-6.522-5-6.587-5.109-0.109-0.109-1.12-1.163-0.109-2.467 0.946-1.174 4.076-2.359 6.88-2.826 0.109-2.391 0.37-4.239 0.707-5.054 0.402-0.978 0.913-0.109 1.37 0.543 0.37 0.489 0.598 2.587 0.62 4.261 1.826-0.087 2.935 0.043 4.967 0.435 2.674 0.457 4.457 1.826 4.315 3.37-0.13 1.522-1.522 2.152-2.065 2.196s-1.413-0.359-1.413-0.359c-0.609-0.283-0.054-0.543 0.652-0.848 0.783-0.38 0.609-0.761 0.609-0.761-0.283-0.87-3.75-1.446-7.196-1.446 0 1.902 0.076 5.054 0.13 6.891 2.413 0.457 4.217 0.359 4.217 0.359s8.804-0.25 9.054-5.87c0.272-5.63-8.804-11.022-15.489-12.717-6.674-1.75-10.457-0.511-10.783-0.348-0.359 0.174-0.033 0.239-0.033 0.239s0.359 0.054 1.011 0.272c0.652 0.217 0.13 0.543 0.13 0.543-1.141 0.391-2.413 0.163-2.663-0.359-0.25-0.511 0.163-0.978 0.652-1.663 0.457-0.707 0.978-0.685 0.978-0.685 8.261-2.88 18.348 2.283 18.348 2.283 9.435 4.761 11.043 10.359 10.87 12.533-0.152 2.141-0.978 5.761-6.793 7.522zM6.413 15.868c-0.935 0.435-0.283 1.13-0.283 1.13 1.761 1.88 3.913 3.065 5.978 3.804 0.239-3.261 0.217-4.424 0.217-6.065-3.196 0.217-5.043 0.739-5.913 1.13z"></path>
        </symbol>
    </defs>
</svg>